<mxfile host="app.diagrams.net" modified="2022-11-09T07:25:27.248Z" agent="5.0 (Windows NT 10.0; Win64; x64) AppleWebKit/537.36 (KHTML, like Gecko) Chrome/107.0.0.0 Safari/537.36 Edg/107.0.1418.35" etag="WPuDdiHvDgd52j5L2e6l" version="20.5.3" type="github">
  <diagram id="rSy5blfaNyEz0sDoO-mt" name="Page-1">
    <mxGraphModel dx="4674" dy="5443" grid="1" gridSize="10" guides="1" tooltips="1" connect="1" arrows="1" fold="1" page="1" pageScale="1" pageWidth="3300" pageHeight="4681" math="0" shadow="0">
      <root>
        <mxCell id="0" />
        <mxCell id="1" parent="0" />
        <mxCell id="FkVBkoyMur-6P7EPDmrd-17" value="" style="shape=or;whiteSpace=wrap;html=1;fontSize=3;" vertex="1" parent="1">
          <mxGeometry x="270" y="-140" width="610" height="1190" as="geometry" />
        </mxCell>
        <mxCell id="FkVBkoyMur-6P7EPDmrd-14" value="" style="ellipse;whiteSpace=wrap;html=1;aspect=fixed;fontSize=3;" vertex="1" parent="1">
          <mxGeometry x="-210" y="-20" width="950" height="950" as="geometry" />
        </mxCell>
        <mxCell id="FkVBkoyMur-6P7EPDmrd-15" value="" style="ellipse;whiteSpace=wrap;html=1;aspect=fixed;fontSize=3;" vertex="1" parent="1">
          <mxGeometry x="-70" y="140" width="650" height="650" as="geometry" />
        </mxCell>
        <mxCell id="FkVBkoyMur-6P7EPDmrd-16" value="" style="ellipse;whiteSpace=wrap;html=1;aspect=fixed;fontSize=3;" vertex="1" parent="1">
          <mxGeometry x="100" y="310" width="310" height="310" as="geometry" />
        </mxCell>
        <mxCell id="FkVBkoyMur-6P7EPDmrd-18" value="Domain" style="text;html=1;strokeColor=none;fillColor=none;align=center;verticalAlign=middle;whiteSpace=wrap;rounded=0;fontSize=24;" vertex="1" parent="1">
          <mxGeometry x="210" y="360" width="90" height="30" as="geometry" />
        </mxCell>
        <mxCell id="FkVBkoyMur-6P7EPDmrd-19" value="App" style="text;html=1;strokeColor=none;fillColor=none;align=center;verticalAlign=middle;whiteSpace=wrap;rounded=0;fontSize=24;" vertex="1" parent="1">
          <mxGeometry x="200" y="230" width="90" height="30" as="geometry" />
        </mxCell>
        <mxCell id="FkVBkoyMur-6P7EPDmrd-20" value="InBound" style="text;html=1;strokeColor=none;fillColor=none;align=center;verticalAlign=middle;whiteSpace=wrap;rounded=0;fontSize=24;" vertex="1" parent="1">
          <mxGeometry x="-30" y="110" width="90" height="30" as="geometry" />
        </mxCell>
        <mxCell id="FkVBkoyMur-6P7EPDmrd-21" value="OutBound" style="text;html=1;strokeColor=none;fillColor=none;align=center;verticalAlign=middle;whiteSpace=wrap;rounded=0;fontSize=24;" vertex="1" parent="1">
          <mxGeometry x="430" y="110" width="90" height="30" as="geometry" />
        </mxCell>
        <mxCell id="FkVBkoyMur-6P7EPDmrd-22" value="Dependicies" style="text;html=1;strokeColor=none;fillColor=none;align=center;verticalAlign=middle;whiteSpace=wrap;rounded=0;fontSize=24;" vertex="1" parent="1">
          <mxGeometry x="310" y="-110" width="90" height="30" as="geometry" />
        </mxCell>
        <mxCell id="FkVBkoyMur-6P7EPDmrd-23" value="&lt;i style=&quot;font-size: 15px;&quot;&gt;&lt;b style=&quot;font-size: 15px;&quot;&gt;usecase[&lt;/b&gt;register, browse&lt;b style=&quot;font-size: 15px;&quot;&gt;]&lt;/b&gt;&lt;/i&gt;" style="text;html=1;strokeColor=none;fillColor=none;align=center;verticalAlign=middle;whiteSpace=wrap;rounded=0;fontSize=15;container=0;" vertex="1" parent="1">
          <mxGeometry x="200" y="640" width="60" height="30" as="geometry" />
        </mxCell>
        <mxCell id="FkVBkoyMur-6P7EPDmrd-26" value="&lt;i style=&quot;font-size: 15px;&quot;&gt;&lt;b style=&quot;font-size: 15px;&quot;&gt;vertical&lt;/b&gt;&lt;/i&gt;" style="text;html=1;strokeColor=none;fillColor=none;align=center;verticalAlign=middle;whiteSpace=wrap;rounded=0;fontSize=15;container=0;" vertex="1" parent="1">
          <mxGeometry x="445" y="490" width="60" height="30" as="geometry" />
        </mxCell>
        <mxCell id="FkVBkoyMur-6P7EPDmrd-27" value="&lt;i style=&quot;font-size: 15px;&quot;&gt;&lt;b style=&quot;font-size: 15px;&quot;&gt;verticalImpl&lt;/b&gt;&lt;/i&gt;" style="text;html=1;strokeColor=none;fillColor=none;align=center;verticalAlign=middle;whiteSpace=wrap;rounded=0;fontSize=15;container=0;" vertex="1" parent="1">
          <mxGeometry x="610" y="460" width="60" height="30" as="geometry" />
        </mxCell>
        <mxCell id="FkVBkoyMur-6P7EPDmrd-28" value="&lt;i style=&quot;font-size: 15px;&quot;&gt;&lt;b style=&quot;font-size: 15px;&quot;&gt;interface&lt;/b&gt;&lt;/i&gt;" style="text;html=1;strokeColor=none;fillColor=none;align=center;verticalAlign=middle;whiteSpace=wrap;rounded=0;fontSize=15;container=0;" vertex="1" parent="1">
          <mxGeometry x="280" y="490" width="60" height="30" as="geometry" />
        </mxCell>
        <mxCell id="FkVBkoyMur-6P7EPDmrd-29" value="&lt;b&gt;&lt;i&gt;model&lt;/i&gt;&lt;/b&gt;" style="text;html=1;strokeColor=none;fillColor=none;align=center;verticalAlign=middle;whiteSpace=wrap;rounded=0;fontSize=15;container=0;" vertex="1" parent="1">
          <mxGeometry x="200" y="490" width="60" height="30" as="geometry" />
        </mxCell>
        <mxCell id="FkVBkoyMur-6P7EPDmrd-30" value="&lt;b&gt;&lt;i&gt;zeroconf&lt;/i&gt;&lt;/b&gt;" style="text;html=1;strokeColor=none;fillColor=none;align=center;verticalAlign=middle;whiteSpace=wrap;rounded=0;fontSize=15;container=0;" vertex="1" parent="1">
          <mxGeometry x="350" y="610" width="60" height="30" as="geometry" />
        </mxCell>
        <mxCell id="FkVBkoyMur-6P7EPDmrd-31" value="&lt;b&gt;&lt;i&gt;zeroconfIpml&lt;br&gt;[golang-zeroconf]&lt;/i&gt;&lt;/b&gt;" style="text;html=1;strokeColor=none;fillColor=none;align=center;verticalAlign=middle;whiteSpace=wrap;rounded=0;fontSize=15;container=0;" vertex="1" parent="1">
          <mxGeometry x="530" y="650" width="160" height="30" as="geometry" />
        </mxCell>
      </root>
    </mxGraphModel>
  </diagram>
</mxfile>
